<svg width="397" height="202" viewBox="0 0 397 202" fill="none" xmlns="http://www.w3.org/2000/svg">
<path d="M213.916 96.534C214.258 96.534 214.669 96.534 214.669 96.534V97.4926C213.163 97.4926 210.903 97.561 209.534 97.561C205.7 97.561 204.467 93.6585 202.482 89.8244C201.866 88.7289 199.606 83.0462 197.415 79.0752C195.498 75.6519 194.882 74.2141 191.87 74.2141C188.583 74.1456 185.16 74.1456 185.16 74.1456V89.3451C185.16 94.617 185.708 96.1232 187.762 96.671V97.561H177.286V96.671C179.272 96.1232 179.82 94.617 179.82 89.3451V60.4524C179.82 55.1805 179.272 53.6742 177.286 53.058V52.2365C177.286 52.2365 188.104 52.168 189.884 52.168C203.509 52.168 207.001 57.5083 207.001 63.2595C207.001 68.8053 203.372 72.2286 196.457 73.5979C199.332 74.0771 201.66 75.7888 203.783 80.1022C205.015 82.7039 206.042 85.3741 206.727 86.538C210.287 93.3161 211.314 96.534 213.916 96.534ZM185.16 53.3319V73.1871H190.569C198.031 73.1871 201.523 69.353 201.523 63.8072C201.523 58.0561 198.1 53.3319 189.679 53.3319C188.515 53.3319 185.16 53.3319 185.16 53.3319ZM244.059 87.9758L244.607 88.592C241.252 93.1792 236.186 97.8349 229.134 97.8349C221.876 97.8349 213.592 92.563 213.592 81.7454C213.592 71.0646 221.671 63.8757 230.845 63.8757C239.13 63.8757 243.923 69.2845 244.128 75.5149H218.453C218.316 76.4735 218.248 77.5005 218.248 78.5274C218.248 87.565 223.793 93.7269 232.352 93.7269C237.418 93.7269 241.047 91.3991 244.059 87.9758ZM228.655 65.0396C223.109 64.9712 219.686 69.1476 218.59 74.6249H238.856C238.171 70.243 234.68 65.0396 228.655 65.0396ZM275.833 88.8658C275.833 94.2062 276.449 95.7124 278.434 96.3286V97.2187H277.476C273.779 97.2187 270.766 94.2062 270.766 90.509V89.4136C270.766 89.4136 265.015 97.8349 256.731 97.8349C251.869 97.8349 247.556 94.8909 247.556 89.2082C247.556 82.43 254.403 79.8283 262.208 77.7059L270.766 75.378C270.766 68.8737 267.48 64.9712 261.865 64.9712C254.608 64.9712 254.266 74.8303 250.226 73.0502C247.145 71.6808 252.965 63.8757 262.961 63.8757C270.903 63.8757 275.833 67.5044 275.833 75.7203V88.8658ZM270.766 87.9073V76.2681L262.482 78.459C257.621 79.8283 252.417 82.0192 252.417 87.428C252.417 91.6729 255.43 95.0963 259.127 95.0963C266.658 95.0963 270.766 87.9073 270.766 87.9073ZM288.852 88.8658C288.852 94.2062 289.469 95.7124 291.454 96.3286V97.2187H281.116V96.3286C283.101 95.7124 283.717 94.2062 283.717 88.8658V61.7532C283.717 57.166 282.827 56.276 281.116 56.0021V54.9751L287.962 51.8257H288.852V88.8658ZM299.285 59.1515C297.231 59.1515 295.657 57.5083 295.657 55.5228C295.657 53.4004 297.231 51.8257 299.285 51.8257C301.339 51.8257 302.846 53.4004 302.846 55.5228C302.846 57.5083 301.271 59.1515 299.285 59.1515ZM302.229 88.8658C302.229 94.2062 302.846 95.7124 304.831 96.3286V97.2187H294.424V96.3286C296.478 95.7124 297.094 94.2062 297.094 88.8658V74.2825C297.094 69.6269 296.204 68.7368 294.424 68.4629V67.5044L301.339 64.355H302.229V88.8658ZM324.722 92.9738C324.859 93.3161 324.928 93.6585 325.065 94.0008C322.737 96.1917 320.066 97.8349 317.122 97.8349C312.946 97.8349 310.481 95.3017 310.481 88.455V65.245H306.305V64.355C312.261 64.355 314.658 56.276 314.658 56.276H315.616V64.355H321.162V65.245H315.616V88.455C315.616 92.9053 317.465 94.617 320.272 94.617C321.573 94.617 323.147 94.1377 324.722 92.9738ZM349.513 64.355H357.181V65.245C355.401 65.245 353.415 67.6413 352.183 70.9962C351.293 73.3925 342.187 98.1772 340.27 102.833C338.695 106.667 335.546 110.912 329.931 111.254C326.782 111.46 323.016 109.68 322.126 107.215C321.442 105.366 322.811 104.134 324.386 104.682C327.056 105.64 326.782 109.953 330.822 109.953C334.656 109.953 338.011 106.188 339.517 102.285C339.654 102.08 340.064 100.916 340.681 99.2727L330.411 72.0916C329.452 69.6269 327.878 65.245 325.413 65.245V64.355H336.162V65.245C333.834 65.245 333.834 67.7098 334.998 71.1331C335.135 71.4754 340.749 86.8803 343.077 92.8369C346.226 84.3471 350.403 72.9817 351.156 70.7223C352.594 66.7513 351.224 65.1766 349.513 65.1766V64.355ZM201.729 150.246C188.652 150.246 177.081 141.619 177.081 127.515C177.081 113.753 188.72 104.236 198.648 103.483C209.191 102.73 213.642 106.222 215.559 108.55C217.681 111.22 215.627 113.685 213.436 113.685C209.534 113.685 208.438 104.716 200.702 104.716C190.432 104.716 182.49 111.631 182.49 124.776C182.421 136.963 189.816 148.603 203.235 148.603C211.382 148.603 217.955 140.729 219.393 137.511L220.557 138.196C218.434 141.482 213.163 150.246 201.729 150.246ZM251.237 140.866C251.237 146.206 251.853 147.712 253.907 148.329V149.219H243.5V148.329C245.554 147.712 246.102 146.206 246.102 140.866V127.515C246.102 120.668 242.747 118.067 238.092 118.067C233.71 118.067 230.081 122.859 230.081 122.859V140.866C230.081 146.206 230.697 147.712 232.683 148.329V149.219H222.344V148.329C224.33 147.712 224.946 146.206 224.946 140.866V113.274C224.946 108.618 224.056 107.797 222.344 107.454V106.496L229.191 103.826H230.081V121.353C230.081 121.353 233.573 115.876 240.899 115.876C247.335 115.876 251.237 119.641 251.237 127.31V140.866ZM287.319 139.976L287.867 140.592C284.512 145.179 279.445 149.835 272.393 149.835C265.136 149.835 256.851 144.563 256.851 133.745C256.851 123.065 264.93 115.876 274.105 115.876C282.389 115.876 287.182 121.285 287.387 127.515H261.712C261.576 128.473 261.507 129.5 261.507 130.527C261.507 139.565 267.053 145.727 275.611 145.727C280.678 145.727 284.306 143.399 287.319 139.976ZM271.914 117.04C266.368 116.971 262.945 121.148 261.849 126.625H282.115C281.431 122.243 277.939 117.04 271.914 117.04ZM322.584 154.901C322.584 160.31 323.2 161.816 325.185 162.433V163.254H314.847V162.433C316.833 161.816 317.449 160.31 317.449 154.901V143.399C314.231 146.822 310.191 149.972 305.467 149.903C297.32 149.835 290.952 142.783 290.952 133.54C290.952 124.434 297.183 116.013 308.48 115.944C313.409 115.944 317.243 118.067 319.64 120.258L322.104 116.355H322.584V154.901ZM317.449 142.235V127.104C317.449 122.585 312.314 117.177 306.289 117.177C299.374 117.177 295.813 122.654 295.813 129.637C295.813 137.306 299.442 146.685 308.411 146.685C311.903 146.685 314.915 144.905 317.449 142.235ZM357.651 143.878C357.651 146.412 357.993 148.329 360.321 148.329V149.219H357.719C354.844 149.219 352.516 146.891 352.516 144.015V143.194C349.161 146.685 344.642 149.835 339.713 149.835C332.866 149.835 329.716 145.453 329.716 137.922V125.666C329.716 121.079 328.826 120.189 327.115 119.915V118.888L334.03 116.355H334.851L334.783 136.689C334.783 144.221 336.905 147.576 342.177 147.576C346.011 147.576 349.572 145.111 352.516 141.961L352.584 125.666C352.584 121.079 351.694 120.189 349.914 119.915V118.888L356.829 116.355H357.651V143.878ZM393.896 139.976L394.444 140.592C391.089 145.179 386.022 149.835 378.97 149.835C371.713 149.835 363.429 144.563 363.429 133.745C363.429 123.065 371.508 115.876 380.682 115.876C388.966 115.876 393.759 121.285 393.964 127.515H368.29C368.153 128.473 368.084 129.5 368.084 130.527C368.084 139.565 373.63 145.727 382.188 145.727C387.255 145.727 390.883 143.399 393.896 139.976ZM378.491 117.04C372.945 116.971 369.522 121.148 368.427 126.625H388.693C388.008 122.243 384.516 117.04 378.491 117.04Z" fill="black"/>
<g filter="url(#filter0_f_22467_409)">
<rect x="56.5513" y="56.4829" width="89.1574" height="89.1574" rx="10.6785" fill="#E39C5E"/>
</g>
<rect x="47" y="45" width="108.259" height="108.259" rx="12.9662" fill="url(#paint0_linear_22467_409)"/>
<mask id="mask0_22467_409" style="mask-type:alpha" maskUnits="userSpaceOnUse" x="47" y="45" width="109" height="109">
<rect x="47" y="45" width="108.259" height="108.259" rx="12.9662" fill="#C19828"/>
</mask>
<g mask="url(#mask0_22467_409)">
<path d="M170.447 133.933H133.449C124.522 133.933 116.822 128.677 113.273 121.092C112.086 118.552 111.366 115.751 111.219 112.799C111.215 112.747 111.215 112.694 111.212 112.642C111.207 112.511 111.202 112.379 111.199 112.247C111.194 112.049 111.19 111.85 111.19 111.652C111.19 108.286 111.936 105.094 113.273 102.233C115.943 96.5211 120.966 92.1351 127.093 90.3124L138.69 103.729H133.826C133.66 103.729 133.495 103.734 133.33 103.744C129.188 103.999 125.902 107.443 125.902 111.652C125.902 111.882 125.914 112.11 125.934 112.337C125.941 112.405 125.946 112.472 125.954 112.541C125.963 112.622 125.973 112.704 125.986 112.787C125.991 112.822 125.996 112.859 126.001 112.896C126.268 114.585 127.068 116.098 128.224 117.253C129.658 118.686 131.639 119.575 133.826 119.575L158.028 119.596L170.447 133.933Z" fill="url(#paint1_linear_22467_409)"/>
<path d="M93.6747 64.3252H63.1616L75.2488 78.2785H93.3078C97.5654 78.2785 101.019 81.7322 101.019 85.9897C101.019 88.1193 100.155 90.0471 98.7594 91.4429C97.3636 92.8371 95.4358 93.7009 93.3078 93.7009H88.9736L100.197 106.655C103.556 105.596 106.562 103.74 108.994 101.309C112.914 97.3881 115.339 91.9733 115.339 85.9897C115.339 74.0259 105.64 64.3252 93.6747 64.3252Z" fill="url(#paint2_linear_22467_409)"/>
<path d="M119.451 133.931H100.614L64.4829 93.8341H83.3191L119.451 133.931Z" fill="url(#paint3_linear_22467_409)"/>
<path d="M77.8127 113.883L63.8228 99.0121V133.931H77.8127V113.883Z" fill="url(#paint4_linear_22467_409)"/>
</g>
<defs>
<filter id="filter0_f_22467_409" x="0.300491" y="0.232132" width="201.659" height="201.659" filterUnits="userSpaceOnUse" color-interpolation-filters="sRGB">
<feFlood flood-opacity="0" result="BackgroundImageFix"/>
<feBlend mode="normal" in="SourceGraphic" in2="BackgroundImageFix" result="shape"/>
<feGaussianBlur stdDeviation="28.1254" result="effect1_foregroundBlur_22467_409"/>
</filter>
<linearGradient id="paint0_linear_22467_409" x1="48.5" y1="49.5" x2="155" y2="153" gradientUnits="userSpaceOnUse">
<stop/>
<stop offset="1" stop-color="#2D2C2C"/>
</linearGradient>
<linearGradient id="paint1_linear_22467_409" x1="140.819" y1="133.933" x2="140.819" y2="90.3124" gradientUnits="userSpaceOnUse">
<stop stop-color="#E39C5E"/>
<stop offset="1" stop-color="#FFFFB5"/>
</linearGradient>
<linearGradient id="paint2_linear_22467_409" x1="89.2504" y1="106.655" x2="89.2504" y2="64.3252" gradientUnits="userSpaceOnUse">
<stop stop-color="#E39C5E"/>
<stop offset="1" stop-color="#FFFFB5"/>
</linearGradient>
<linearGradient id="paint3_linear_22467_409" x1="91.9667" y1="133.931" x2="91.9667" y2="93.8341" gradientUnits="userSpaceOnUse">
<stop stop-color="#E39C5E"/>
<stop offset="1" stop-color="#FFFFB5"/>
</linearGradient>
<linearGradient id="paint4_linear_22467_409" x1="70.8177" y1="133.931" x2="70.8177" y2="99.0121" gradientUnits="userSpaceOnUse">
<stop stop-color="#E39C5E"/>
<stop offset="1" stop-color="#FFFFB5"/>
</linearGradient>
</defs>
</svg>
